<?xml version="1.0" encoding="utf-8"?>
<!-- Generator: Adobe Illustrator 24.1.1, SVG Export Plug-In . SVG Version: 6.00 Build 0)  -->
<svg version="1.1" id="Layer_1" xmlns="http://www.w3.org/2000/svg" xmlns:xlink="http://www.w3.org/1999/xlink" x="0px" y="0px"
	 viewBox="0 0 200 200" style="enable-background:new 0 0 200 200;" xml:space="preserve">
<style type="text/css">
	.st0{fill:url(#SVGID_1_);}
</style>
<linearGradient id="SVGID_1_" gradientUnits="userSpaceOnUse" x1="52.314" y1="44.4476" x2="151.7502" y2="143.8838" gradientTransform="matrix(1 0 0 -1 0 202)">
	<stop  offset="6.713014e-07" style="stop-color:#B2BCCF"/>
	<stop  offset="0.3454" style="stop-color:#808FAF"/>
	<stop  offset="0.6308" style="stop-color:#4D628F"/>
	<stop  offset="1" style="stop-color:#012060"/>
</linearGradient>
<path class="st0" d="M143.9,54.3c9.6,14.1,16.3,25.6,23.3,40.6c6.9,15,14.1,33.7,9.5,49.2c-4.6,15.6-20.8,28.1-38.8,33.7
	c-17.9,5.5-37.6,3.9-55.6-2.5c-18.1-6.3-34.6-17.5-45.8-33.5c-11.2-15.9-17.2-36.6-13.6-55.3c3.5-18.8,16.6-35.7,32.6-48.6
	c16-13,34.9-22,50.6-18.1C121.8,23.6,134.2,40.3,143.9,54.3z"/>
</svg>
